<!DOCTYPE svg PUBLIC "-//W3C//DTD SVG 1.1//EN" "http://www.w3.org/Graphics/SVG/1.1/DTD/svg11.dtd">
<!-- Uploaded to: SVG Repo, www.svgrepo.com, Transformed by: SVG Repo Mixer Tools -->
<svg width="800px" height="800px" viewBox="0 0 16 16" xmlns="http://www.w3.org/2000/svg" fill="#000000" transform="rotate(0)matrix(-1, 0, 0, 1, 0, 0)">
<g id="SVGRepo_bgCarrier" stroke-width="0"/>
<g id="SVGRepo_tracerCarrier" stroke-linecap="round" stroke-linejoin="round"/>
<g id="SVGRepo_iconCarrier"> <g fill="#2e3436"> <path d="m 7 4.003906 c -0.179688 -0.003906 -0.359375 0.046875 -0.515625 0.140625 l -5 3 c -0.648437 0.386719 -0.648437 1.328125 0 1.714844 l 5 3 c 0.15625 0.09375 0.335937 0.140625 0.515625 0.140625 v 0.003906 c 1 -0.003906 1 -1 1 -1 v -6 s 0.003906 -1 -1 -1 z m 0 0"/> <path d="m 14 4.003906 c -0.179688 -0.003906 -0.359375 0.046875 -0.515625 0.140625 l -5 3 c -0.648437 0.386719 -0.648437 1.328125 0 1.714844 l 5 3 c 0.15625 0.09375 0.335937 0.140625 0.515625 0.140625 v 0.003906 c 1 -0.003906 1 -1 1 -1 v -6 s 0.003906 -1 -1 -1 z m 0 0"/> </g> </g>
</svg>